<mxfile host="app.diagrams.net" agent="Mozilla/5.0 (Windows NT 10.0; Win64; x64) AppleWebKit/537.36 (KHTML, like Gecko) Chrome/127.0.0.0 Safari/537.36" version="24.7.6">
  <diagram name="Page-1" id="z8ExkLMGZhvwskaOM85E">
    <mxGraphModel dx="1444" dy="825" grid="1" gridSize="10" guides="1" tooltips="1" connect="1" arrows="1" fold="1" page="1" pageScale="1" pageWidth="1169" pageHeight="827" background="#99CCFF" math="0" shadow="0">
      <root>
        <mxCell id="0" />
        <mxCell id="1" parent="0" />
        <mxCell id="wIbOE4cR_yaXGh80_5XY-8" style="edgeStyle=orthogonalEdgeStyle;rounded=0;orthogonalLoop=1;jettySize=auto;html=1;" edge="1" parent="1" source="wIbOE4cR_yaXGh80_5XY-1" target="wIbOE4cR_yaXGh80_5XY-3">
          <mxGeometry relative="1" as="geometry" />
        </mxCell>
        <mxCell id="wIbOE4cR_yaXGh80_5XY-1" value="Start Internal Validation&lt;div&gt;start_internal_validation.py (06:35 BST next day)&lt;/div&gt;" style="rounded=1;whiteSpace=wrap;html=1;" vertex="1" parent="1">
          <mxGeometry x="240" y="120" width="300" height="60" as="geometry" />
        </mxCell>
        <mxCell id="wIbOE4cR_yaXGh80_5XY-2" value="Paperless events for 24 hours&lt;div&gt;00:00:00 (20/08/2024) to 00:00:00 (21/08/2024)&lt;/div&gt;" style="rounded=1;whiteSpace=wrap;html=1;" vertex="1" parent="1">
          <mxGeometry x="40" y="290" width="200" height="60" as="geometry" />
        </mxCell>
        <mxCell id="wIbOE4cR_yaXGh80_5XY-3" value="Product BOH event&lt;div&gt;&lt;font color=&quot;#ff3333&quot;&gt;00:00:00&lt;/font&gt; (20/08/2024) to &lt;font color=&quot;#ff3333&quot;&gt;00:00:00&lt;/font&gt; (21/08/2024)&lt;br&gt;&lt;/div&gt;" style="rounded=1;whiteSpace=wrap;html=1;" vertex="1" parent="1">
          <mxGeometry x="520" y="290" width="200" height="60" as="geometry" />
        </mxCell>
        <mxCell id="wIbOE4cR_yaXGh80_5XY-6" style="edgeStyle=orthogonalEdgeStyle;rounded=0;orthogonalLoop=1;jettySize=auto;html=1;entryX=0.467;entryY=0;entryDx=0;entryDy=0;entryPerimeter=0;" edge="1" parent="1" source="wIbOE4cR_yaXGh80_5XY-1" target="wIbOE4cR_yaXGh80_5XY-2">
          <mxGeometry relative="1" as="geometry" />
        </mxCell>
        <mxCell id="wIbOE4cR_yaXGh80_5XY-10" value="" style="endArrow=classic;startArrow=classic;html=1;rounded=0;exitX=1;exitY=0.5;exitDx=0;exitDy=0;" edge="1" parent="1" source="wIbOE4cR_yaXGh80_5XY-2" target="wIbOE4cR_yaXGh80_5XY-3">
          <mxGeometry width="50" height="50" relative="1" as="geometry">
            <mxPoint x="340" y="340" as="sourcePoint" />
            <mxPoint x="390" y="290" as="targetPoint" />
          </mxGeometry>
        </mxCell>
        <mxCell id="wIbOE4cR_yaXGh80_5XY-11" value="Compare" style="edgeLabel;html=1;align=center;verticalAlign=middle;resizable=0;points=[];" vertex="1" connectable="0" parent="wIbOE4cR_yaXGh80_5XY-10">
          <mxGeometry x="-0.1143" y="-1" relative="1" as="geometry">
            <mxPoint as="offset" />
          </mxGeometry>
        </mxCell>
        <mxCell id="wIbOE4cR_yaXGh80_5XY-13" style="edgeStyle=orthogonalEdgeStyle;rounded=0;orthogonalLoop=1;jettySize=auto;html=1;" edge="1" parent="1" source="wIbOE4cR_yaXGh80_5XY-12">
          <mxGeometry relative="1" as="geometry">
            <mxPoint x="370" y="430" as="targetPoint" />
          </mxGeometry>
        </mxCell>
        <mxCell id="wIbOE4cR_yaXGh80_5XY-12" value="Compare" style="rhombus;whiteSpace=wrap;html=1;" vertex="1" parent="1">
          <mxGeometry x="330" y="280" width="80" height="80" as="geometry" />
        </mxCell>
        <mxCell id="wIbOE4cR_yaXGh80_5XY-14" value="Britannia reconciliation reports&lt;div&gt;&lt;br&gt;&lt;div&gt;&lt;div&gt;ge_and_dc_stock_compared_20240809.txt&lt;/div&gt;&lt;div&gt;recon_comparing_20240809.csv&lt;/div&gt;&lt;div&gt;goods_in_validation_report_20240809.txt&lt;/div&gt;&lt;div&gt;ge_invalid_products_info_20240809.txt&lt;/div&gt;&lt;/div&gt;&lt;/div&gt;" style="rounded=1;whiteSpace=wrap;html=1;" vertex="1" parent="1">
          <mxGeometry x="180" y="440" width="380" height="120" as="geometry" />
        </mxCell>
        <mxCell id="wIbOE4cR_yaXGh80_5XY-16" value="Although the PBOH job is scheduled to run at 00:00 BST, sometimes it get completed by 00:02 BST (next day) or 23:58 BST on the same day. Due to this the product stock reconciliation highlights few products as discrepancies ranging from -6 to +6." style="rounded=1;whiteSpace=wrap;html=1;" vertex="1" parent="1">
          <mxGeometry x="710" y="400" width="390" height="160" as="geometry" />
        </mxCell>
        <mxCell id="wIbOE4cR_yaXGh80_5XY-19" value="" style="shape=flexArrow;endArrow=classic;html=1;rounded=0;exitX=1;exitY=1;exitDx=0;exitDy=0;" edge="1" parent="1" source="wIbOE4cR_yaXGh80_5XY-3" target="wIbOE4cR_yaXGh80_5XY-16">
          <mxGeometry width="50" height="50" relative="1" as="geometry">
            <mxPoint x="880" y="340" as="sourcePoint" />
            <mxPoint x="930" y="290" as="targetPoint" />
          </mxGeometry>
        </mxCell>
        <mxCell id="wIbOE4cR_yaXGh80_5XY-20" value="&lt;h1 style=&quot;margin-top: 0px;&quot;&gt;&lt;font style=&quot;font-size: 28px;&quot;&gt;Britannia customs service internal validation&lt;/font&gt;&lt;/h1&gt;" style="text;html=1;whiteSpace=wrap;overflow=hidden;rounded=0;" vertex="1" parent="1">
          <mxGeometry x="120" y="40" width="650" height="120" as="geometry" />
        </mxCell>
        <mxCell id="wIbOE4cR_yaXGh80_5XY-23" value="" style="edgeStyle=orthogonalEdgeStyle;rounded=0;orthogonalLoop=1;jettySize=auto;html=1;" edge="1" parent="1" source="wIbOE4cR_yaXGh80_5XY-21" target="wIbOE4cR_yaXGh80_5XY-22">
          <mxGeometry relative="1" as="geometry" />
        </mxCell>
        <mxCell id="wIbOE4cR_yaXGh80_5XY-21" value="" style="shape=partialRectangle;whiteSpace=wrap;html=1;bottom=1;right=1;left=1;top=0;fillColor=none;routingCenterX=-0.5;" vertex="1" parent="1">
          <mxGeometry x="380" y="560" width="510" height="40" as="geometry" />
        </mxCell>
        <mxCell id="wIbOE4cR_yaXGh80_5XY-22" value="Post the start_internal_validation_process.py python script execution, we need to create a new python script which should take the products from the ge_and_dc_stock_compared_20240809.txt report and query the TPND, quantity of goods_in_completed, pick_completion_activity and stock_adjustment_activity events from Couchbase for these products in the specified timeframe and adjust the same to the report." style="rounded=1;whiteSpace=wrap;html=1;" vertex="1" parent="1">
          <mxGeometry x="370" y="620" width="530" height="130" as="geometry" />
        </mxCell>
      </root>
    </mxGraphModel>
  </diagram>
</mxfile>
